<?xml version="1.0" encoding="UTF-8" standalone="no"?>
<!-- Created with Inkscape (http://www.inkscape.org/) -->

<svg
   xmlns:dc="http://purl.org/dc/elements/1.1/"
   xmlns:cc="http://creativecommons.org/ns#"
   xmlns:rdf="http://www.w3.org/1999/02/22-rdf-syntax-ns#"
   xmlns:svg="http://www.w3.org/2000/svg"
   xmlns="http://www.w3.org/2000/svg"
   version="1.1"
   width="416"
   height="234.75"
   id="svg2"
   xml:space="preserve"><metadata
     id="metadata8"><rdf:RDF><cc:Work
         rdf:about=""><dc:format>image/svg+xml</dc:format><dc:type
           rdf:resource="http://purl.org/dc/dcmitype/StillImage" /><dc:title></dc:title></cc:Work></rdf:RDF></metadata><defs
     id="defs6" /><g
     transform="matrix(1.25,0,0,-1.25,0,234.75)"
     id="g10"><g
       transform="scale(0.1,0.1)"
       id="g12"><path
         d="m 69.5273,1586.51 0,141.58 0.7305,14.47 2.1445,14.06 3.4883,13.57 4.7617,13.01 5.961,12.37 7.0937,11.68 8.148,10.89 9.141,10.06 10.055,9.14 10.898,8.15 11.672,7.09 12.379,5.96 13.008,4.76 13.566,3.49 14.059,2.15 14.476,0.73 1263.161,0 14.48,-0.73 14.05,-2.15 13.57,-3.49 13.01,-4.76 12.38,-5.96 11.67,-7.09 10.9,-8.15 10.05,-9.14 9.14,-10.06 8.15,-10.89 7.1,-11.68 5.96,-12.37 4.76,-13.01 3.49,-13.57 2.14,-14.06 0.74,-14.47 0,-283.17 -0.74,-14.47 -2.14,-14.06 -3.49,-13.57 -4.76,-13.01 -5.96,-12.38 -7.1,-11.67 -8.15,-10.9 -9.14,-10.05 -10.05,-9.14 -10.9,-8.15 -11.67,-7.09 -12.38,-5.97 -13.01,-4.76 -13.57,-3.49 -14.05,-2.14 -14.48,-0.73 -1263.161,0 -14.476,0.73 -14.059,2.14 -13.566,3.49 -13.008,4.76 -12.379,5.97 -11.672,7.09 -10.898,8.15 -10.055,9.14 -9.141,10.05 -8.148,10.9 -7.0937,11.68 -5.961,12.37 -4.7617,13.01 -3.4883,13.57 -2.1445,14.06 -0.7305,14.48 0,141.58 z"
         id="path14"
         style="fill:none;stroke:#000000;stroke-width:7.97010994;stroke-linecap:butt;stroke-linejoin:miter;stroke-miterlimit:10;stroke-opacity:1;stroke-dasharray:49.7751, 29.8651, 0, 0;stroke-dashoffset:24.9066" /><g
         transform="scale(10,10)"
         id="g16"><text
           transform="matrix(1,0,0,-1,44.6602,174.4)"
           id="text18"><tspan
             x="0 3.8399994 8.8799992 12.720004 15.479999 19.919994 27.719994 34.080086 38.520084 43.560085 50.880085 55.320087 60.360085 65.40007 68.160065 71.520081 76.560066"
             y="0"
             id="tspan20"
             style="font-size:9.96263981px;font-variant:normal;writing-mode:lr-tb;fill:#000000;fill-opacity:1;fill-rule:nonzero;stroke:none;font-family:Nimbus Roman No9 L;-inkscape-font-specification:NimbusRomNo9L-Regu">systemsandcontrol</tspan></text>
</g><path
         d="m 191.926,1506.11 0,82.69 c 0,45.66 37.023,82.69 82.691,82.69 l 331.77,0 c 45.668,0 82.691,-37.03 82.691,-82.69 l 0,-165.38 c 0,-45.67 -37.023,-82.69 -82.691,-82.69 l -331.77,0 c -45.668,0 -82.691,37.02 -82.691,82.69 l 0,82.69 z"
         id="path22"
         style="fill:none;stroke:#000000;stroke-width:7.97010994;stroke-linecap:butt;stroke-linejoin:miter;stroke-miterlimit:10;stroke-opacity:1;stroke-dasharray:none" /><g
         transform="scale(10,10)"
         id="g24"><text
           transform="matrix(1,0,0,-1,31.5801,154.6)"
           id="text26"><tspan
             x="0 7.8000002 12.839999 17.879999 22.319994"
             y="0"
             id="tspan28"
             style="font-size:9.96263981px;font-variant:normal;writing-mode:lr-tb;fill:#000000;fill-opacity:1;fill-rule:nonzero;stroke:none;font-family:Nimbus Roman No9 L;-inkscape-font-specification:NimbusRomNo9L-Regu">model</tspan><tspan
             x="-6.3601599 -3.0001602 1.4398383 6.4798374 11.519836 15.959835 18.719835 21.479832 26.519836"
             y="13.2"
             id="tspan30"
             style="font-size:9.96263981px;font-variant:normal;writing-mode:lr-tb;fill:#000000;fill-opacity:1;fill-rule:nonzero;stroke:none;font-family:Nimbus Roman No9 L;-inkscape-font-specification:NimbusRomNo9L-Regu">reduction</tspan></text>
</g><path
         d="m 821.926,1506.11 0,82.69 c 0,45.66 37.023,82.69 82.691,82.69 l 481.303,0 c 45.67,0 82.69,-37.03 82.69,-82.69 l 0,-165.38 c 0,-45.67 -37.02,-82.69 -82.69,-82.69 l -481.303,0 c -45.668,0 -82.691,37.02 -82.691,82.69 l 0,82.69 z"
         id="path32"
         style="fill:none;stroke:#000000;stroke-width:7.97010994;stroke-linecap:butt;stroke-linejoin:miter;stroke-miterlimit:10;stroke-opacity:1;stroke-dasharray:none" /><g
         transform="scale(10,10)"
         id="g34"><text
           x="114.87383"
           y="-155.10887"
           transform="scale(1,-1)"
           id="text36"
           style="text-align:center;text-anchor:middle"><tspan
             x="114.87383"
             y="-155.10887"
             id="tspan40"
             style="font-size:9.96263981px;font-variant:normal;text-align:center;writing-mode:lr-tb;text-anchor:middle;fill:#000000;fill-opacity:1;fill-rule:nonzero;stroke:none;font-family:Nimbus Roman No9 L;-inkscape-font-specification:NimbusRomNo9L-Regu">system</tspan><tspan
             x="114.87383"
             y="-142.65558"
             id="tspan3484"
             style="font-size:9.96263981px;font-variant:normal;text-align:center;writing-mode:lr-tb;text-anchor:middle;fill:#000000;fill-opacity:1;fill-rule:nonzero;stroke:none;font-family:Nimbus Roman No9 L;-inkscape-font-specification:NimbusRomNo9L-Regu">identification</tspan><tspan
             x="114.87383"
             y="-130.20227"
             id="tspan3177"
             style="font-size:9.96263981px;font-variant:normal;text-align:center;writing-mode:lr-tb;text-anchor:middle;fill:#000000;fill-opacity:1;fill-rule:nonzero;stroke:none;font-family:Nimbus Roman No9 L;-inkscape-font-specification:NimbusRomNo9L-Regu" /></text>
</g><path
         d="m 735.758,1521.55 -43.238,-15.44 43.238,-15.45 -17.293,15.45"
         id="path42"
         style="fill:#000000;fill-opacity:1;fill-rule:nonzero;stroke:none" /><path
         d="m 774.164,1490.66 43.234,15.45 -43.234,15.44 17.293,-15.44"
         id="path44"
         style="fill:#000000;fill-opacity:1;fill-rule:nonzero;stroke:none" /><path
         d="m 718.465,1506.11 72.992,0"
         id="path46"
         style="fill:none;stroke:#000000;stroke-width:7.97010994;stroke-linecap:butt;stroke-linejoin:miter;stroke-miterlimit:10;stroke-opacity:1;stroke-dasharray:none" /><path
         d="m 1847.93,1586.51 0,141.58 0.73,14.47 2.14,14.06 3.49,13.57 4.76,13.01 5.96,12.37 7.1,11.68 8.14,10.89 9.14,10.06 10.06,9.14 10.9,8.15 11.67,7.09 12.38,5.96 13.01,4.76 13.56,3.49 14.06,2.15 14.48,0.73 1152.57,0 14.47,-0.73 14.06,-2.15 13.57,-3.49 13,-4.76 12.38,-5.96 11.67,-7.09 10.9,-8.15 10.06,-9.14 9.14,-10.06 8.15,-10.89 7.09,-11.68 5.96,-12.37 4.76,-13.01 3.49,-13.57 2.15,-14.06 0.73,-14.47 0,-283.17 -0.73,-14.47 -2.15,-14.06 -3.49,-13.57 -4.76,-13.01 -5.96,-12.38 -7.09,-11.67 -8.15,-10.9 -9.14,-10.05 -10.06,-9.14 -10.9,-8.15 -11.67,-7.09 -12.38,-5.97 -13,-4.76 -13.57,-3.49 -14.06,-2.14 -14.47,-0.73 -1152.57,0 -14.48,0.73 -14.06,2.14 -13.56,3.49 -13.01,4.76 -12.38,5.97 -11.67,7.09 -10.9,8.15 -10.06,9.14 -9.14,10.05 -8.14,10.9 -7.1,11.68 -5.96,12.37 -4.76,13.01 -3.49,13.57 -2.14,14.06 -0.73,14.48 0,141.58 z"
         id="path48"
         style="fill:none;stroke:#000000;stroke-width:7.97010994;stroke-linecap:butt;stroke-linejoin:miter;stroke-miterlimit:10;stroke-opacity:1;stroke-dasharray:48.969, 29.3814, 0, 0;stroke-dashoffset:24.9066" /><g
         transform="scale(10,10)"
         id="g50"><text
           transform="matrix(1,0,0,-1,217.82,174.4)"
           id="text52"><tspan
             x="0 3.8399932 6.6000123 11.639999 16.680012 21.120001 26.28009 31.320076 34.680092 39.720078 44.160091 48.600082 52.440075 56.280094 59.040089 64.080101"
             y="0"
             id="tspan54"
             style="font-size:9.96263981px;font-variant:normal;writing-mode:lr-tb;fill:#000000;fill-opacity:1;fill-rule:nonzero;stroke:none;font-family:Nimbus Roman No9 L;-inkscape-font-specification:NimbusRomNo9L-Regu">signalprocessing</tspan></text>
</g><path
         d="m 1984.73,1506.11 0,82.69 c 0,45.66 37.02,82.69 82.69,82.69 l 370.62,0 c 45.66,0 82.69,-37.03 82.69,-82.69 l 0,-165.38 c 0,-45.67 -37.03,-82.69 -82.69,-82.69 l -370.62,0 c -45.67,0 -82.69,37.02 -82.69,82.69 l 0,82.69 z"
         id="path56"
         style="fill:none;stroke:#000000;stroke-width:7.97010994;stroke-linecap:butt;stroke-linejoin:miter;stroke-miterlimit:10;stroke-opacity:1;stroke-dasharray:none" /><g
         transform="scale(10,10)"
         id="g58"><text
           transform="matrix(1,0,0,-1,209.78,154.6)"
           id="text60"><tspan
             x="0 3.8399932 8.8800049 13.319994 17.760008 20.520002 23.880018 28.320007"
             y="0"
             id="tspan62"
             style="font-size:9.96263981px;font-variant:normal;writing-mode:lr-tb;fill:#000000;fill-opacity:1;fill-rule:nonzero;stroke:none;font-family:Nimbus Roman No9 L;-inkscape-font-specification:NimbusRomNo9L-Regu">spectral</tspan><tspan
             x="-5.2800798 -0.84009069 2.999927 5.7599216 8.5199413 16.319946 20.759937 23.519957 26.279951 31.319962"
             y="13.2"
             id="tspan64"
             style="font-size:9.96263981px;font-variant:normal;writing-mode:lr-tb;fill:#000000;fill-opacity:1;fill-rule:nonzero;stroke:none;font-family:Nimbus Roman No9 L;-inkscape-font-specification:NimbusRomNo9L-Regu">estimation</tspan></text>
</g><path
         d="m 2653.13,1506.11 0,82.69 c 0,45.66 37.02,82.69 82.69,82.69 l 370.52,0 c 45.67,0 82.69,-37.03 82.69,-82.69 l 0,-165.38 c 0,-45.67 -37.02,-82.69 -82.69,-82.69 l -370.52,0 c -45.67,0 -82.69,37.02 -82.69,82.69 l 0,82.69 z"
         id="path66"
         style="fill:none;stroke:#000000;stroke-width:7.97010994;stroke-linecap:butt;stroke-linejoin:miter;stroke-miterlimit:10;stroke-opacity:1;stroke-dasharray:none" /><g
         transform="scale(10,10)"
         id="g68"><text
           transform="matrix(1,0,0,-1,279.98,154.6)"
           id="text70"><tspan
             x="0 2.7600193 10.560025 15.000014 20.040001"
             y="0"
             id="tspan72"
             style="font-size:9.96263981px;font-variant:normal;writing-mode:lr-tb;fill:#000000;fill-opacity:1;fill-rule:nonzero;stroke:none;font-family:Nimbus Roman No9 L;-inkscape-font-specification:NimbusRomNo9L-Regu">image</tspan><tspan
             x="-8.6402302 -3.6002431 0.83977067 5.8797579 8.6397772 13.679764 17.03978 20.399771 23.15979 28.199776"
             y="13.2"
             id="tspan74"
             style="font-size:9.96263981px;font-variant:normal;writing-mode:lr-tb;fill:#000000;fill-opacity:1;fill-rule:nonzero;stroke:none;font-family:Nimbus Roman No9 L;-inkscape-font-specification:NimbusRomNo9L-Regu">deblurring</tspan></text>
</g><path
         d="m 1515.29,1521.55 -43.24,-15.44 43.24,-15.45 -17.29,15.45"
         id="path76"
         style="fill:#000000;fill-opacity:1;fill-rule:nonzero;stroke:none" /><path
         d="m 1938.16,1490.66 43.24,15.45 -43.24,15.44 17.3,-15.44"
         id="path78"
         style="fill:#000000;fill-opacity:1;fill-rule:nonzero;stroke:none" /><path
         d="m 1498,1506.11 457.46,0"
         id="path80"
         style="fill:none;stroke:#000000;stroke-width:7.97010994;stroke-linecap:butt;stroke-linejoin:miter;stroke-miterlimit:10;stroke-opacity:1;stroke-dasharray:none" /><path
         d="m 2568.61,1521.55 -43.24,-15.44 43.24,-15.45 -17.3,15.45"
         id="path82"
         style="fill:#000000;fill-opacity:1;fill-rule:nonzero;stroke:none" /><path
         d="m 2606.56,1490.66 43.24,15.45 -43.24,15.44 17.3,-15.44"
         id="path84"
         style="fill:#000000;fill-opacity:1;fill-rule:nonzero;stroke:none" /><path
         d="m 2551.32,1506.11 72.54,0"
         id="path86"
         style="fill:none;stroke:#000000;stroke-width:7.97010994;stroke-linecap:butt;stroke-linejoin:miter;stroke-miterlimit:10;stroke-opacity:1;stroke-dasharray:none" /><path
         d="m 777.91,936.105 0,74.225 c 0,40.99 33.235,74.22 74.223,74.22 l 1648.407,0 c 40.98,0 74.22,-33.23 74.22,-74.22 l 0,-148.443 c 0,-40.989 -33.24,-74.223 -74.22,-74.223 l -1648.407,0 c -40.988,0 -74.223,33.234 -74.223,74.223 l 0,74.218 z"
         id="path88"
         style="fill:none;stroke:#ff0000;stroke-width:25.9029007;stroke-linecap:butt;stroke-linejoin:miter;stroke-miterlimit:10;stroke-opacity:1;stroke-dasharray:none" /><path
         d="m 777.91,936.105 0,74.225 c 0,40.99 33.235,74.22 74.223,74.22 l 1648.407,0 c 40.98,0 74.22,-33.23 74.22,-74.22 l 0,-148.443 c 0,-40.989 -33.24,-74.223 -74.22,-74.223 l -1648.407,0 c -40.988,0 -74.223,33.234 -74.223,74.223 l 0,74.218 z"
         id="path90"
         style="fill:none;stroke:#ffffff;stroke-width:9.96263981;stroke-linecap:butt;stroke-linejoin:miter;stroke-miterlimit:10;stroke-opacity:1;stroke-dasharray:none" /><g
         transform="scale(10,10)"
         id="g92"><text
           transform="matrix(1,0,0,-1,92.0602,91)"
           id="text94"><tspan
             x="0 3.8400056 7.2000022 11.640004 17.159994 21.599995 24.959997 30.479988 34.799995 39.239994 47.160145 49.920139 54.840218 62.040215 65.400215 69.840218 74.880219 80.400208 88.200356 93.240356 98.760345 104.28033 108.60034 113.64033 118.68034 121.44033 129.72034 134.76033 138.12035 140.88036 145.92035"
             y="0"
             id="tspan96"
             style="font-size:9.96263981px;font-variant:normal;writing-mode:lr-tb;fill:#ff0000;fill-opacity:1;fill-rule:nonzero;stroke:none;font-family:Nimbus Roman No9 L;-inkscape-font-specification:NimbusRomNo9L-Medi">structuredlow-rankapproximation</tspan></text>
</g><path
         d="m 737.051,1326.12 -44.531,11.18 27.367,-36.86 -5.797,22.45"
         id="path98"
         style="fill:#ff0000;fill-opacity:1;fill-rule:nonzero;stroke:none" /><path
         d="m 1058.18,1094.38 45.81,3.12 -37.42,26.61 12.45,-19.56"
         id="path100"
         style="fill:#ff0000;fill-opacity:1;fill-rule:nonzero;stroke:none" /><path
         d="m 714.09,1322.89 c 111.074,-74.24 236.351,-182.06 364.93,-218.34"
         id="path102"
         style="fill:none;stroke:#ff0000;stroke-width:7.97010994;stroke-linecap:butt;stroke-linejoin:miter;stroke-miterlimit:10;stroke-opacity:1;stroke-dasharray:none" /><path
         d="m 1295.88,1309.52 -36.98,27.22 11.37,-44.48 3.13,22.97"
         id="path104"
         style="fill:#ff0000;fill-opacity:1;fill-rule:nonzero;stroke:none" /><path
         d="m 1425.94,1111.96 43.57,-14.46 -24.55,38.8 4.11,-22.82"
         id="path106"
         style="fill:#ff0000;fill-opacity:1;fill-rule:nonzero;stroke:none" /><path
         d="m 1273.4,1315.23 c 45.19,-67.03 111.99,-151.97 175.67,-201.75"
         id="path108"
         style="fill:none;stroke:#ff0000;stroke-width:7.97010994;stroke-linecap:butt;stroke-linejoin:miter;stroke-miterlimit:10;stroke-opacity:1;stroke-dasharray:none" /><path
         d="m 2093.16,1293.8 16.24,42.94 -39.78,-22.94 22.97,3.18"
         id="path110"
         style="fill:#ff0000;fill-opacity:1;fill-rule:nonzero;stroke:none" /><path
         d="m 1894.31,1136.97 -23.45,-39.47 43.15,15.69 -23.17,0.86"
         id="path112"
         style="fill:#ff0000;fill-opacity:1;fill-rule:nonzero;stroke:none" /><path
         d="m 2092.59,1316.98 c -56.5,-66.46 -134.56,-147.29 -201.75,-202.93"
         id="path114"
         style="fill:none;stroke:#ff0000;stroke-width:7.97010994;stroke-linecap:butt;stroke-linejoin:miter;stroke-miterlimit:10;stroke-opacity:1;stroke-dasharray:none" /><path
         d="m 2649.27,1299.48 26.84,37.26 -44.37,-11.83 23.01,-2.89"
         id="path116"
         style="fill:#ff0000;fill-opacity:1;fill-rule:nonzero;stroke:none" /><path
         d="m 2334.13,1123.34 -37.95,-25.84 45.73,-4.05 -20.62,10.59"
         id="path118"
         style="fill:#ff0000;fill-opacity:1;fill-rule:nonzero;stroke:none" /><path
         d="m 2654.75,1322.02 c -102.47,-70.66 -213.01,-186.64 -333.46,-217.98"
         id="path120"
         style="fill:none;stroke:#ff0000;stroke-width:7.97010994;stroke-linecap:butt;stroke-linejoin:miter;stroke-miterlimit:10;stroke-opacity:1;stroke-dasharray:none" /><path
         d="m 10.7266,296.508 0,143.676 0.7382,14.687 2.1797,14.266 3.5391,13.769 4.832,13.203 6.0508,12.559 7.1953,11.848 8.2735,11.058 9.2734,10.203 10.2031,9.274 11.0586,8.273 11.8477,7.196 12.5586,6.05 13.2034,4.832 13.769,3.539 14.266,2.18 14.691,0.742 1268.894,0 14.69,-0.742 14.27,-2.18 13.77,-3.539 13.2,-4.832 12.56,-6.05 11.85,-7.196 11.06,-8.273 10.2,-9.274 9.27,-10.203 8.28,-11.058 7.19,-11.848 6.05,-12.559 4.83,-13.203 3.54,-13.769 2.18,-14.266 0.74,-14.687 0,-287.356 -0.74,-14.691 -2.18,-14.266 -3.54,-13.769 -4.83,-13.1997 -6.05,-12.5585 -7.19,-11.8477 -8.28,-11.0586 -9.27,-10.2031 -10.2,-9.2735 -11.06,-8.2734 -11.85,-7.1953 -12.56,-6.0508 -13.2,-4.832 -13.77,-3.5391 -14.27,-2.17968 -14.69,-0.73828 -1268.894,0 -14.691,0.73828 -14.266,2.17968 -13.769,3.5391 -13.2034,4.832 -12.5586,6.0508 -11.8477,7.1953 -11.0586,8.2734 -10.2031,9.2735 -9.2734,10.2031 -8.2735,11.0586 -7.1953,11.8477 -6.0508,12.5585 -4.832,13.1997 -3.5391,13.769 -2.1797,14.266 -0.7382,14.691 0,143.68 z"
         id="path122"
         style="fill:none;stroke:#000000;stroke-width:7.97010994;stroke-linecap:butt;stroke-linejoin:miter;stroke-miterlimit:10;stroke-opacity:1;stroke-dasharray:50.1879, 30.1127, 0, 0;stroke-dashoffset:24.9066" /><path
         d="m 133.129,380.508 0,82.687 c 0,45.668 37.023,82.692 82.687,82.692 l 323.485,0 c 45.668,0 82.691,-37.024 82.691,-82.692 l 0,-165.379 c 0,-45.668 -37.023,-82.691 -82.691,-82.691 l -323.485,0 c -45.664,0 -82.687,37.023 -82.687,82.691 l 0,82.692 z"
         id="path124"
         style="fill:none;stroke:#000000;stroke-width:7.97010994;stroke-linecap:butt;stroke-linejoin:miter;stroke-miterlimit:10;stroke-opacity:1;stroke-dasharray:none" /><g
         transform="scale(10,10)"
         id="g126"><text
           transform="matrix(1,0,0,-1,22.7,42.0398)"
           id="text128"><tspan
             x="0 4.4399986 9.4799976 14.519997 17.879997 22.919996 27.959995"
             y="0"
             id="tspan130"
             style="font-size:9.96263981px;font-variant:normal;writing-mode:lr-tb;fill:#000000;fill-opacity:1;fill-rule:nonzero;stroke:none;font-family:Nimbus Roman No9 L;-inkscape-font-specification:NimbusRomNo9L-Regu">approx.</tspan><tspan
             x="4.5601602 11.760159 18.360157"
             y="13.2"
             id="tspan132"
             style="font-size:9.96263981px;font-variant:normal;writing-mode:lr-tb;fill:#000000;fill-opacity:1;fill-rule:nonzero;stroke:none;font-family:Nimbus Roman No9 L;-inkscape-font-specification:NimbusRomNo9L-Regu">GCD</tspan></text>
</g><path
         d="m 754.727,380.508 0,82.687 c 0,45.668 37.023,82.692 82.691,82.692 l 524.422,0 c 45.67,0 82.69,-37.024 82.69,-82.692 l 0,-165.379 c 0,-45.668 -37.02,-82.691 -82.69,-82.691 l -524.422,0 c -45.668,0 -82.691,37.023 -82.691,82.691 l 0,82.692 z"
         id="path134"
         style="fill:none;stroke:#000000;stroke-width:7.97010994;stroke-linecap:butt;stroke-linejoin:miter;stroke-miterlimit:10;stroke-opacity:1;stroke-dasharray:none" /><g
         transform="scale(10,10)"
         id="g136"><text
           transform="matrix(1,0,0,-1,94.8199,42.0398)"
           id="text138"><tspan
             x="0 4.4400015 9.4800005 14.519988 17.879992 22.919991 27.95999"
             y="0"
             id="tspan140"
             style="font-size:9.96263981px;font-variant:normal;writing-mode:lr-tb;fill:#000000;fill-opacity:1;fill-rule:nonzero;stroke:none;font-family:Nimbus Roman No9 L;-inkscape-font-specification:NimbusRomNo9L-Regu">approx.</tspan><tspan
             x="-9.9597702 -6.7199268 -2.2799253 2.1600699 4.9200649 9.9600639 13.320079 16.080074 20.520075 24.960064 27.720072 30.480066 35.520054"
             y="13.2"
             id="tspan142"
             style="font-size:9.96263981px;font-variant:normal;writing-mode:lr-tb;fill:#000000;fill-opacity:1;fill-rule:nonzero;stroke:none;font-family:Nimbus Roman No9 L;-inkscape-font-specification:NimbusRomNo9L-Regu">factorization</tspan><tspan
             x="-70.919968 -66.479973 -61.439972 -53.639973 -48.599972 -43.559975 -40.79998 -36.359978 -33.599983 -30.839989 -25.799982 -20.759983 -16.319983 -11.400062 -3.6000612 0.83993411 3.5999351 8.6399345 13.079924 20.87993 25.319931 28.079926 30.83992 35.279922"
             y="33.839802"
             id="tspan144"
             style="font-size:9.96263981px;font-variant:normal;writing-mode:lr-tb;fill:#000000;fill-opacity:1;fill-rule:nonzero;stroke:none;font-family:Nimbus Roman No9 L;-inkscape-font-specification:NimbusRomNo9L-Regu">computationalmathematics</tspan></text>
</g><path
         d="m 1798.73,296.508 0,136.59 0.7,13.964 2.07,13.559 3.37,13.09 4.59,12.551 5.75,11.941 6.84,11.262 7.87,10.512 8.81,9.703 9.7,8.812 10.52,7.863 11.26,6.844 11.94,5.754 12.55,4.59 13.09,3.367 13.56,2.07 13.97,0.708 1245.4,0 13.97,-0.708 13.56,-2.07 13.09,-3.367 12.55,-4.59 11.94,-5.754 11.26,-6.844 10.51,-7.863 9.7,-8.812 8.82,-9.703 7.86,-10.512 6.84,-11.262 5.76,-11.941 4.59,-12.551 3.37,-13.09 2.07,-13.559 0.7,-13.964 0,-273.18 -0.7,-13.969 -2.07,-13.562 -3.37,-13.09 -4.59,-12.547 -5.76,-11.9414 -6.84,-11.2617 -7.86,-10.5157 -8.82,-9.6992 -9.7,-8.8164 -10.51,-7.8633 -11.26,-6.8437 -11.94,-5.75 -12.55,-4.5938 -13.09,-3.3671 -13.56,-2.0704 -13.97,-0.7031 -1245.4,0 -13.97,0.7031 -13.56,2.0704 -13.09,3.3671 -12.55,4.5899 -11.94,5.7539 -11.26,6.8437 -10.52,7.8633 -9.7,8.8125 -8.81,9.7031 -7.87,10.5118 -6.84,11.2617 -5.75,11.9413 -4.59,12.551 -3.37,13.09 -2.07,13.558 -0.7,13.969 0,136.594 z"
         id="path146"
         style="fill:none;stroke:#000000;stroke-width:7.97010994;stroke-linecap:butt;stroke-linejoin:miter;stroke-miterlimit:10;stroke-opacity:1;stroke-dasharray:50.7183, 30.431, 0, 0;stroke-dashoffset:24.9066" /><path
         d="m 1911.53,366.105 0,82.692 c 0,45.668 37.02,82.691 82.69,82.691 l 492.15,0 c 45.67,0 82.69,-37.023 82.69,-82.691 l 0,-165.383 c 0,-45.664 -37.02,-82.687 -82.69,-82.687 l -492.15,0 c -45.67,0 -82.69,37.023 -82.69,82.691 l 0,82.687 z"
         id="path148"
         style="fill:none;stroke:#000000;stroke-width:7.97010994;stroke-linecap:butt;stroke-linejoin:miter;stroke-miterlimit:10;stroke-opacity:1;stroke-dasharray:none" /><g
         transform="scale(10,10)"
         id="g150"><text
           transform="matrix(1,0,0,-1,200.42,40.6)"
           id="text152"><tspan
             x="0 3.360003 7.8000169 12.240005 17.280018 25.080023 29.520014 34.560001 39.60001 44.040001"
             y="0"
             id="tspan154"
             style="font-size:9.96263981px;font-variant:normal;writing-mode:lr-tb;fill:#000000;fill-opacity:1;fill-rule:nonzero;stroke:none;font-family:Nimbus Roman No9 L;-inkscape-font-specification:NimbusRomNo9L-Regu">recomender</tspan><tspan
             x="7.8000002 11.639994 16.680004 20.519999 23.280018 27.720007 35.520012"
             y="13.2"
             id="tspan156"
             style="font-size:9.96263981px;font-variant:normal;writing-mode:lr-tb;fill:#000000;fill-opacity:1;fill-rule:nonzero;stroke:none;font-family:Nimbus Roman No9 L;-inkscape-font-specification:NimbusRomNo9L-Regu">systems</tspan></text>
</g><path
         d="m 2701.12,366.105 0,82.692 c 0,45.668 37.03,82.691 82.7,82.691 l 381.66,0 c 45.67,0 82.69,-37.023 82.69,-82.691 l 0,-165.379 c 0,-45.668 -37.02,-82.691 -82.69,-82.691 l -381.66,0 c -45.67,0 -82.7,37.023 -82.7,82.691 l 0,82.687 z"
         id="path158"
         style="fill:none;stroke:#000000;stroke-width:7.97010994;stroke-linecap:butt;stroke-linejoin:miter;stroke-miterlimit:10;stroke-opacity:1;stroke-dasharray:none" /><g
         transform="scale(10,10)"
         id="g160"><text
           transform="matrix(1,0,0,-1,279.5,40.6)"
           id="text162"><tspan
             x="0 7.8000064 12.239996 17.280006 20.040001 23.400017 28.440004 31.200024"
             y="0"
             id="tspan164"
             style="font-size:9.96263981px;font-variant:normal;writing-mode:lr-tb;fill:#000000;fill-opacity:1;fill-rule:nonzero;stroke:none;font-family:Nimbus Roman No9 L;-inkscape-font-specification:NimbusRomNo9L-Regu">manifold</tspan><tspan
             x="1.6800801 4.4400992 8.8800888 13.320078 16.680094 21.720079 24.480099 29.520086"
             y="13.2"
             id="tspan166"
             style="font-size:9.96263981px;font-variant:normal;writing-mode:lr-tb;fill:#000000;fill-opacity:1;fill-rule:nonzero;stroke:none;font-family:Nimbus Roman No9 L;-inkscape-font-specification:NimbusRomNo9L-Regu">learning</tspan><tspan
             x="-62.160118 -54.360115 -49.920124 -45.48011 -40.440125 -37.680103 -32.640118 -25.920267 -23.160248 -18.720259 -14.28027 -10.920254 -5.8802671 -3.1202478 1.919739"
             y="30.960199"
             id="tspan168"
             style="font-size:9.96263981px;font-variant:normal;writing-mode:lr-tb;fill:#000000;fill-opacity:1;fill-rule:nonzero;stroke:none;font-family:Nimbus Roman No9 L;-inkscape-font-specification:NimbusRomNo9L-Regu">machinelearning</tspan></text>
</g><path
         d="m 2615.74,381.547 -43.24,-15.442 43.24,-15.441 -17.3,15.441"
         id="path170"
         style="fill:#000000;fill-opacity:1;fill-rule:nonzero;stroke:none" /><path
         d="m 2653.36,350.664 43.24,15.441 -43.24,15.442 17.3,-15.442"
         id="path172"
         style="fill:#000000;fill-opacity:1;fill-rule:nonzero;stroke:none" /><path
         d="m 2598.44,366.105 72.22,0"
         id="path174"
         style="fill:none;stroke:#000000;stroke-width:7.97010994;stroke-linecap:butt;stroke-linejoin:miter;stroke-miterlimit:10;stroke-opacity:1;stroke-dasharray:none" /><path
         d="m 654.445,566.289 -29.007,-35.586 44.988,9.156 -22.789,4.266"
         id="path176"
         style="fill:#ff0000;fill-opacity:1;fill-rule:nonzero;stroke:none" /><path
         d="m 1042.51,748.5 37.7,26.211 -45.78,3.601 20.73,-10.382"
         id="path178"
         style="fill:#ff0000;fill-opacity:1;fill-rule:nonzero;stroke:none" /><path
         d="m 647.637,544.125 c 125.75,76.031 265.691,185.379 407.523,223.805"
         id="path180"
         style="fill:none;stroke:#ff0000;stroke-width:7.97010994;stroke-linecap:butt;stroke-linejoin:miter;stroke-miterlimit:10;stroke-opacity:1;stroke-dasharray:none" /><path
         d="m 1246.29,593.43 -14.51,-43.559 38.82,24.516 -22.82,-4.094"
         id="path182"
         style="fill:#ff0000;fill-opacity:1;fill-rule:nonzero;stroke:none" /><path
         d="m 1427.25,736.84 25.96,37.871 -44.08,-12.863 23.07,-2.356"
         id="path184"
         style="fill:#ff0000;fill-opacity:1;fill-rule:nonzero;stroke:none" /><path
         d="m 1247.78,570.293 c 49.19,62.797 119.82,142.395 184.42,189.199"
         id="path186"
         style="fill:none;stroke:#ff0000;stroke-width:7.97010994;stroke-linecap:butt;stroke-linejoin:miter;stroke-miterlimit:10;stroke-opacity:1;stroke-dasharray:none" /><path
         d="m 2085.24,562.238 37.3,-26.765 -11.91,44.339 -2.85,-23.007"
         id="path188"
         style="fill:#ff0000;fill-opacity:1;fill-rule:nonzero;stroke:none" /><path
         d="m 1948.01,762.316 -44.21,12.395 26.35,-37.594 -5.18,22.598"
         id="path190"
         style="fill:#ff0000;fill-opacity:1;fill-rule:nonzero;stroke:none" /><path
         d="m 2107.78,556.805 c -47.04,67.965 -115.37,155.133 -182.81,202.91"
         id="path192"
         style="fill:none;stroke:#ff0000;stroke-width:7.97010994;stroke-linecap:butt;stroke-linejoin:miter;stroke-miterlimit:10;stroke-opacity:1;stroke-dasharray:none" /><path
         d="m 2675.67,546.621 44.54,-11.148 -27.4,36.839 5.82,-22.445"
         id="path194"
         style="fill:#ff0000;fill-opacity:1;fill-rule:nonzero;stroke:none" /><path
         d="m 2383.41,779.469 -45.66,-4.758 38.34,-25.246 -13.14,19.101"
         id="path196"
         style="fill:#ff0000;fill-opacity:1;fill-rule:nonzero;stroke:none" /><path
         d="m 2698.63,549.867 c -104.14,69.469 -214.06,189.035 -335.68,218.699"
         id="path198"
         style="fill:none;stroke:#ff0000;stroke-width:7.97010994;stroke-linecap:butt;stroke-linejoin:miter;stroke-miterlimit:10;stroke-opacity:1;stroke-dasharray:none" /></g><text
       x="142.16515"
       y="54.101681"
       transform="matrix(0.8,0,0,-0.8,0,187.8)"
       id="text3179"
       xml:space="preserve"
       style="font-size:40px;font-style:normal;font-weight:normal;line-height:125%;letter-spacing:0px;word-spacing:0px;fill:#000000;fill-opacity:1;stroke:none;font-family:Sans"><tspan
         x="142.16515"
         y="54.101681"
         id="tspan3181"></tspan></text>
<text
       x="110.04281"
       y="-24.772936"
       transform="matrix(0.8,0,0,-0.8,0,187.8)"
       id="text3480"
       xml:space="preserve"
       style="font-size:40px;font-style:normal;font-weight:normal;line-height:125%;letter-spacing:0px;word-spacing:0px;fill:#000000;fill-opacity:1;stroke:none;font-family:Sans"><tspan
         x="110.04281"
         y="-24.772936"
         id="tspan3482"></tspan></text>
</g></svg>